<svg xmlns="http://www.w3.org/2000/svg" width="24" height="20" viewBox="0 0 24 20">
    <path fill="#878787" fill-rule="nonzero" d="M.8 0C.358 0 0 .33 0 .739c0 .408.358.739.8.739h2.551l2.751 11.984c.109.451.43.827.834.824h13.338c.423.005.812-.349.812-.74 0-.39-.39-.744-.812-.738H7.586l-.342-1.478h14.097c.358-.002.697-.254.775-.577l1.867-7.39c.105-.428-.299-.897-.775-.9H5.218L4.786.585C4.709.257 4.365 0 4.001 0h-3.2zm4.45 4.286h5.25v2.143H5.722L5.25 4.286zm6.75 0h3.75v2.143H12V4.286zm5.25 0h4.5l-.517 2.143H17.25V4.286zM6.75 7.857h3.75V10H7.227L6.75 7.857zm5.25 0h3.75V10H12V7.857zm5.25 0H21L20.467 10H17.25V7.857zM9.375 15c-1.44 0-2.625 1.128-2.625 2.5S7.935 20 9.375 20 12 18.872 12 17.5 10.815 15 9.375 15zm8.25 0C16.185 15 15 16.128 15 17.5s1.185 2.5 2.625 2.5 2.625-1.128 2.625-2.5-1.185-2.5-2.625-2.5zm-8.25 1.429c.631 0 1.125.47 1.125 1.071s-.494 1.071-1.125 1.071-1.125-.47-1.125-1.071.494-1.071 1.125-1.071zm8.25 0c.631 0 1.125.47 1.125 1.071s-.494 1.071-1.125 1.071-1.125-.47-1.125-1.071.494-1.071 1.125-1.071z"/>
</svg>
