<svg xmlns="http://www.w3.org/2000/svg" width="20" height="20" viewBox="0 0 20 20">
    <path fill="#878787" fill-rule="nonzero" d="M20 18.5l-4.905-4.905c2.565-3.304 2.333-8.092-.701-11.125A8.377 8.377 0 0 0 8.432 0C6.179 0 4.062.877 2.47 2.47A8.376 8.376 0 0 0 0 8.432c0 2.252.877 4.37 2.47 5.962a8.377 8.377 0 0 0 5.962 2.47 8.367 8.367 0 0 0 5.164-1.769L18.501 20M4.075 12.851a6.165 6.165 0 0 1-1.818-4.388c0-1.658.645-3.216 1.818-4.389a6.166 6.166 0 0 1 4.39-1.817c1.657 0 3.216.645 4.389 1.817a6.212 6.212 0 0 1 0 8.777 6.168 6.168 0 0 1-4.39 1.818 6.166 6.166 0 0 1-4.389-1.818z"/>
</svg>
