<svg viewBox="0 0 648.02 257.21" xmlns="http://www.w3.org/2000/svg"><g fill="#262626"><path d="m36.01 170.82h54.02v18.02h-54.02z"/><path d="m126 239.19v18h-126s.08-18 0-18z"/><path d="m126 205v18h-126s.08-18 0-18z"/><path d="m126 34.13v18h-126s.08-18 0-18z"/><path d="m126 0v18h-126s.08-18 0-18z"/><path d="m36.01 68.32h54.02v18.02h-54.02z"/><path d="m36.01 102.5h54.02v18.02h-54.02z"/><path d="m36.01 136.63h54.02v18.02h-54.02z"/><path d="m281 0c16.56 1.57 30.9 7 43.11 18 0 0-180.14.06-180.14 0v-18"/><path d="m338.16 34.13c3 5.95 5.27 10.95 5.27 18h-199.43v-18"/><path d="m345 68.32c0 6.28-.54 12.51-2.37 18h-54.63v-18"/><path d="m180 102.5h154.5a67.5 67.5 0 0 1 -15.11 18h-139.39z"/><path d="m180 136.69h138.55a87.73 87.73 0 0 1 16.48 18h-155.03z"/><path d="m179.99 188.84v-18.02h54.02v18.02"/><path d="m343 170.82c2.67 5.5 3 11.73 3.58 18h-58.58v-18"/><path d="m344.19 205c-1.3 6-2.37 13.13-6.87 18h-193.32v-18"/><path d="m144 257.21v-18h181.19c-12.21 11.51-28.92 17.74-47 18"/><path d="m179.99 86.34v-18.02h54.02v18.02"/><path d="m648.02 17.96-108.35.06 6.33-17.96 102.02-.06"/><path d="m360 0 102.15.06 6.41 17.94h-108.56"/><path d="m648 52.15h-120.16s6.18-18 6.18-18l114 .06"/><path d="m480.46 52.15h-120.48v-18.02l114.15.11"/><path d="m515.86 86.34 6.18-18.02 89.96.05v17.97"/><path d="m486.03 68.37 6.41 18.02-96.44-.05v-17.97"/><path d="m450 106.94v13.58h-54v-18h102.09l6 17 6.11-17h101.8v18h-54v-13.58l-4.65 13.58h-98.43"/><path d="m547.53 136.75-6.26 17.9-74.39.06s-6.33-18-6.41-18"/><path d="m529.29 188.78 6.34-18-63 .06 6.26 17.9s50.36.12 50.43 0"/><path d="m517.16 222.97-26.47.06-6.03-18.02h38.91"/><path d="m505.26 257.21h-2.52l-6.33-18.02h15.26"/><path d="m359.98 239.19h90.03v18.02h-90.03z"/><path d="m396 188.84v-18.02h54.02v18.02"/><path d="m557.98 188.84v-18.02h54.02v18.02"/><path d="m557.98 154.65v-17.96h54.02v17.96"/><path d="m396 154.65v-17.96h54.02v17.96"/><path d="m359.98 205.01h90.03v18.02h-90.03z"/><path d="m557.98 239.19h90.03v18.02h-90.03z"/><path d="m557.98 205.01h90.03v18.02h-90.03z"/></g></svg>