<svg height="22" viewBox="0 0 32 22" width="32" xmlns="http://www.w3.org/2000/svg"><g fill="none" fill-rule="evenodd" stroke="#3d3d3d" transform="translate(0 1)"><path d="m.43465909 20.5h32.00000001" stroke-dasharray="1 2" stroke-linecap="square" stroke-width=".5"/><path d="m.09090909 8.98316283h31.81818181" stroke-dasharray="1 2" stroke-linecap="square" stroke-width=".5"/><g opacity=".5" transform="translate(.545455)"><path d="m0 3.39410723c1.54545455 2.78946765 2.09090909 3.3350772 3.27272727 3.3350772s1.54545455-.54560955 2.72727273-2.81898267 1.36363636-3.81926684 3.81818182-3.81926684c2.45454548 0 3.41355758 4.20430515 4.36363638 7.3657289.9500788 3.16142378 2.2031304 8.18414318 4.4833194 8.18414318 2.2801891 0 3.4078701-4.29524 3.8512402-6.21125442.4433701-1.9160144 1.7563495-6.97430961 3.5745313-6.97430961s2.1818182 2.09150326 2.5454545 2.90991759c.3636364.81841432 1 2.09150326 1.8181819 2.09150326"/><g fill="#f3f3f3"><ellipse cx="3.272727" cy="6.729184" rx="1" ry="1"/><ellipse cx="18.727273" cy="15.640807" rx="1" ry="1"/></g></g></g></svg>