<svg height="34" viewBox="0 0 31 34" width="31" xmlns="http://www.w3.org/2000/svg"><g fill="none" fill-rule="evenodd" opacity=".5" stroke="#3d3d3d" transform="translate(1 1)"><g stroke-linecap="square" stroke-width=".5"><path d="m13.2916667 1.20561941-10.97580357 5.31289911"/><path d="m26.6730769 6.52216749-10.9696641-5.32019705"/><path d="m26.6730769 6.71664168-10.9696641 4.22188902"/><path d="m26.6730769 6.71632184-10.9615384 14.15356326"/><path d="m26.6747066 6.71626392-10.9647979 24.08471358"/><path d="m26.6747066 15.5460498-10.9647979 15.252728"/><path d="m26.6762821 25.4682981-10.9679488 5.3392659"/><path d="m26.6747066 16.449553-10.9727858-5.3128991"/><path d="m26.6747066 25.2849365-10.9727858-14.1560799"/><path d="m26.6730769 15.550447-10.9696641 5.3128991"/><path d="m26.6730769 25.2833583-10.9696641-4.221889"/><path d="m26.6747066 16.4573503-10.9727858-14.15607988"/><path d="m26.6747066 25.2822069-10.9727858-24.08165518"/><path d="m13.2916667 2.30127042-10.97580357 14.15607988"/><path d="m13.2900913 11.1405836-10.9727859 5.3050397"/><path d="m13.2884615 20.8772414-10.9696641-4.2372414"/><path d="m13.2900913 30.8009195-10.9727859-14.1535632"/><path d="m13.2900913 10.9462069-10.9727859-4.23724138"/><path d="m13.2884615 20.8685927-10.96978018-14.15097853"/><path d="m13.2900913 30.7986652-10.97290002-24.080089"/><path d="m13.2900913 25.4854111-10.9727859 5.3050398" transform="matrix(1 0 0 -1 0 56.275862)"/><path d="m13.2884615 26.3766578-10.9696641-5.3050398" transform="matrix(1 0 0 -1 0 47.448276)"/><path d="m13.2900913 25.2836782-10.97290002-14.1535633" transform="matrix(1 0 0 -1 0 36.413794)"/><path d="m13.2916667 25.2822069-10.97591578-24.08165518" transform="matrix(1 0 0 -1 0 26.482758)"/></g><ellipse cx="1.115385" cy="6.62069" fill="#f3f3f3" rx="1.115385" ry="1.103448" stroke-width=".9"/><ellipse cx="27.884615" cy="6.62069" fill="#f3f3f3" rx="1.115385" ry="1.103448" stroke-width=".9"/><ellipse cx="1.115385" cy="25.37931" fill="#f3f3f3" rx="1.115385" ry="1.103448" stroke-width=".9"/><ellipse cx="27.884615" cy="25.37931" fill="#f3f3f3" rx="1.115385" ry="1.103448" stroke-width=".9"/><ellipse cx="1.115385" cy="16.551724" fill="#f3f3f3" rx="1.115385" ry="1.103448" stroke-width=".9"/><ellipse cx="27.884615" cy="16.551724" fill="#f3f3f3" rx="1.115385" ry="1.103448" stroke-width=".9"/><ellipse cx="14.5" cy="1.103448" fill="#f3f3f3" rx="1.115385" ry="1.103448" stroke-width=".9"/><ellipse cx="14.5" cy="30.896552" fill="#f3f3f3" rx="1.115385" ry="1.103448" stroke-width=".9"/><ellipse cx="14.5" cy="11.034483" fill="#f3f3f3" rx="1.115385" ry="1.103448" stroke-width=".9"/><ellipse cx="14.5" cy="20.965517" fill="#f3f3f3" rx="1.115385" ry="1.103448" stroke-width=".9"/></g></svg>