<svg height="35" viewBox="0 0 35 35" width="35" xmlns="http://www.w3.org/2000/svg"><path d="m564.7665 3118.11775c2.028375-1.36012 3.742875-3.61237 4.939875-6.43162l4.078125-.00113c-2.14875 3.078-5.319 5.38312-9.018 6.43275zm-17.98875-6.4305 4.075875-.00225c1.197 2.82038 2.912625 5.07263 4.939875 6.43275-3.69675-1.04963-6.867-3.35362-9.01575-6.4305zm9.00675-25.23825c-2.025 1.36125-3.736125 3.61013-4.930875 6.426l-4.075875.00225c2.1465-3.0735 5.31225-5.37637 9.00675-6.42825zm17.996625 6.426-4.073625.00112c-1.19475-2.81587-2.907-5.06587-4.930875-6.42712 3.69225 1.05075 6.856875 3.35362 9.0045 6.426zm-2.251125 9.47138v.34087l5.19975-.00225c-.073125 2.997-.950625 5.79262-2.424375 8.19l-4.278375.00112c.946125-2.51662 1.495125-5.42362 1.503-8.52974zm5.19975-.47138-5.19975.00225v.33637c-.007875-3.105-.556875-6.01087-1.501875-8.52749l4.275-.00113c1.474875 2.39737 2.352375 5.19187 2.426625 8.19zm-16.04475 9.00225v-17.19l8.487-.00112c.9765 2.50537 1.55025 5.44274 1.55025 8.59387 0 3.15225-.57375 6.08962-1.551375 8.59613zm0 .81 8.155125-.00112c-1.81575 4.09949-4.782375 6.82649-8.155125 7.03125zm-10.83375-9.00112 10.02375-.00113v16.03238c-5.48325-.33413-9.88875-7.35188-10.02375-16.03125zm-.81-.81001-5.211.00113c.07425-2.997.95175-5.79263 2.426625-8.19l4.276125-.00225c-.910125 2.4255-1.44675 5.21437-1.49175 8.19112zm10.83375-.00112-10.02375.00112c.133875-8.67937 4.539375-15.7005 10.02375-16.03349zm.81-16.03237c3.373875.20475 6.3405 2.93287 8.15625 7.03349l-8.15625.00113zm-16.85475 16.84462 5.211-.00112c.045 2.97674.581625 5.76562 1.49175 8.18999l-4.276125.00113c-1.474875-2.39625-2.352375-5.19187-2.426625-8.19zm33.72975-.405c0-9.52987-7.75125-17.28225-17.28-17.28225s-17.28 7.75238-17.28 17.28225 7.75125 17.28225 17.28 17.28225 17.28-7.75238 17.28-17.28225zm-11.25.36889 1.98225-2.36138-.621-.52087-1.79325 2.13637-1.73475-2.13075-.628875.51075 1.985625 2.439v.68963h-1.67175v.81h1.67175v1.431h.81v-1.431h1.670625v-.81h-1.670625zm-8.185837 8.1684h-3.375c.419625-.38025.69975-.84038.69975-1.47038 0-.21825-.043875-.39037-.10125-.54337h2.307375v-.81h-2.88225c-.0945-.12038-.151875-.24413-.151875-.45675 0-1.13288.8775-1.5345 1.627875-1.5345.57375 0 1.215.43762 1.589625.81112l.5715-.5715c-.24525-.24637-1.1295-1.04962-2.161125-1.04962-1.434375 0-2.43675.96412-2.43675 2.3445 0 .17662.025875.32512.06525.45675h-.909v.81h1.44225c.14175.15525.228375.28237.228375.54337 0 .61088-.4725.99225-1.402875 1.52325-.15975.09113-.237375.27788-.19125.45563.04725.17775.208125.3015.3915.3015h4.687875zm-4.998825-16.41477c0 .84375.68625 1.53 1.528875 1.53h2.251125c.397125 0 .72.32288.72.72 0 .39713-.322875.72-.72.72h-3.375v.81h1.845v1.2825h.81v-1.2825h.72c.84375 0 1.53-.68625 1.53-1.53s-.68625-1.53-1.53-1.53h-2.251125c-.396 0-.718875-.32287-.718875-.72 0-.39712.322875-.72.718875-.72h3.376125v-.81h-1.845v-1.2825h-.81v1.2825h-.721125c-.842625 0-1.528875.68625-1.528875 1.53" fill="#9e9e9e" fill-rule="evenodd" transform="translate(-543 -3085)"/></svg>