<svg height="34" viewBox="0 0 26 34" width="26" xmlns="http://www.w3.org/2000/svg"><g fill="none" fill-rule="evenodd" opacity=".539509" stroke="#3d3d3d"><g stroke-width=".768"><ellipse cx="3.655754" cy="17.711356" rx="2.53535" ry="2.552124" transform="matrix(.8660254 -.5 .5 .8660254 -8.365899 4.200749)"/><path d="m8.65139394 14.2788997.15626093.3203287-3.95350589 2.3076407c-.08508575.0496641-.11427473.1586045-.06541815.2441565.00039775.0006939.00039775.0006939.00079987.0013854.04705611.0806176.15055615.1078246.23117381.0607685l3.97576521-2.3206334.20721032.2578788c1.38985286 1.7297092 3.83116916 2.1977216 5.75726936 1.0734669 2.160605-1.2611338 2.9004928-4.0590994 1.6504084-6.24810256-1.2486839-2.18655073-4.0093809-2.93609665-6.1675216-1.67640122-2.06373186 1.2045895-2.84321085 3.82547798-1.79244226 5.97951168z" fill="#f3f3f3"/><ellipse cx="12.719808" cy="12.266778" rx="4.818368" ry="4.850247" transform="matrix(.8660254 -.5 .5 .8660254 -4.429258 8.003341)"/><g transform="translate(15)"><path d="m3.49010582 4.84635583.15367343.21229866-3.23120469 5.02769031c-.05326492.0828792-.02981459.1931973.05255673.2472443.00066944.0004377.00066944.0004377.00134164.0008712.07852695.0504679.18309789.0277215.23356572-.0508055l3.19710077-4.97462534.31296712.16861008c.64888512.34958489 1.4315827.34378131 2.0793573-.03432134 1.02688342-.59938649 1.37892951-1.93068678.78413968-2.97221393-.59338931-1.03907472-1.90380231-1.39485976-2.92822144-.79691167-1.02688341.59938649-1.3789295 1.93068679-.78413968 2.97221393.03962448.06938581.08263418.13608397.12886342.1999493z" fill="#f3f3f3"/><ellipse cx="5.182959" cy="3.535431" rx="2.437727" ry="2.453855" transform="matrix(.8660254 -.5 .5 .8660254 -1.073331 3.065137)"/></g></g><g stroke-width=".6912"><g transform="matrix(.25881905 .96592583 -.96592583 .25881905 10.664683 21.296457)"><ellipse cx="3.107674" cy="6.926166" rx="2.281891" ry="2.280913" transform="matrix(.8660254 -.5 .5 .8660254 -3.046734 2.481767)"/><path d="m7.44272583 3.79491534.09852458.27110702-3.26460393 1.90553227c-.0749032.0437206-.10059901.13962365-.0575893.21493728.00034982.00061032.00034982.00061032.00070348.00121842.04138527.07090225.1324123.09483049.20331454.05344522l3.28696477-1.91858417.18841429.1871021c.60973109.60548466 1.55561847.73171938 2.31172634.29038318.9246963-.53974043 1.2443897-1.73190044.7137259-2.66113741-.5293963-.92701767-1.7050403-1.24174135-2.62753092-.70328839-.81806109.47749799-1.17394228 1.47794551-.85364975 2.35928448z" fill="#f3f3f3"/><ellipse cx="9.287145" cy="3.112557" rx="2.225052" ry="2.224098" transform="matrix(.8660254 -.5 .5 .8660254 -.312037 5.060576)"/></g><g transform="matrix(-.7313537 -.68199836 .68199836 -.7313537 20.895049 32.66858)"><ellipse cx="3.107674" cy="6.926166" rx="2.281891" ry="2.280913" transform="matrix(.8660254 -.5 .5 .8660254 -3.046734 2.481767)"/><path d="m7.44272583 3.79491534.09852458.27110702-3.26460393 1.90553227c-.0749032.0437206-.10059901.13962365-.0575893.21493728.00034982.00061032.00034982.00061032.00070348.00121842.04138527.07090225.1324123.09483049.20331454.05344522l3.28696477-1.91858417.18841429.1871021c.60973109.60548466 1.55561847.73171938 2.31172634.29038318.9246963-.53974043 1.2443897-1.73190044.7137259-2.66113741-.5293963-.92701767-1.7050403-1.24174135-2.62753092-.70328839-.81806109.47749799-1.17394228 1.47794551-.85364975 2.35928448z" fill="#f3f3f3"/><ellipse cx="9.287145" cy="3.112557" rx="2.225052" ry="2.224098" transform="matrix(.8660254 -.5 .5 .8660254 -.312037 5.060576)"/></g></g></g></svg>